<svg width="139" height="151" viewBox="0 0 139 151" fill="none" xmlns="http://www.w3.org/2000/svg">
<path d="M98.2807 110.896L60.322 122.147C54.7076 123.811 50.8041 120.432 51.6359 114.642L55.5001 90.106C65.87 87.497 77.8725 90.6677 88.6474 85.6103L101.471 99.8704C105.327 104.271 103.892 109.233 98.2807 110.896ZM109.543 100.267L73.7052 60.9087C73.7052 60.9087 70.3647 48.9087 68.8798 43.8988C67.3949 38.8889 63.7835 39.9594 61.5816 40.612C59.3858 41.2628 52.8509 43.1998 51.3244 43.6523C49.7978 44.1047 46.8505 44.512 48.462 49.9491C50.2002 55.8132 53.6888 66.8416 53.6888 66.8416L45.087 119.372C44.0038 126.861 49.0607 131.228 56.3157 129.078L80.8671 121.801L105.417 114.524C112.673 112.373 114.529 105.957 109.543 100.267Z" fill="white"/>
<path d="M71.0886 105.029C71.9561 107.956 70.3928 111.001 67.5956 111.83C64.8 112.659 61.8283 110.958 60.9609 108.031C60.0929 105.103 61.6579 102.057 64.4535 101.229C67.2506 100.4 70.2207 102.101 71.0886 105.029Z" fill="white"/>
<path d="M75.1911 25.1467C76.1944 28.5314 74.266 32.0884 70.8787 33.0924C67.494 34.0956 63.9363 32.1647 62.9331 28.78C61.9299 25.3953 63.8607 21.8375 67.2454 20.8343C70.6326 19.8303 74.1879 21.762 75.1911 25.1467Z" fill="white"/>
<path d="M49.6464 26.5108C50.0046 27.7194 49.316 28.9897 48.1064 29.3482C46.8977 29.7064 45.6272 29.0169 45.269 27.8082C44.9107 26.5995 45.6002 25.329 46.8089 24.9708C48.0185 24.6123 49.2881 25.3021 49.6464 26.5108Z" fill="white"/>
<path d="M93.8277 100.071C94.9634 103.903 92.7788 107.93 88.9455 109.066C85.1152 110.202 81.0856 108.016 79.9499 104.184C78.8141 100.352 81.0018 96.324 84.8321 95.1887C88.6654 94.0524 92.6919 96.239 93.8277 100.071Z" fill="white"/>
</svg>
