<svg width="17" height="34" viewBox="0 0 17 34" fill="none" xmlns="http://www.w3.org/2000/svg">
<path d="M0.540545 17.6296H4.21326V32.5668C4.21326 32.7084 4.27021 32.8442 4.37158 32.9443C4.47295 33.0445 4.61044 33.1007 4.7538 33.1007H10.982C11.1253 33.1007 11.2628 33.0445 11.3642 32.9443C11.4656 32.8442 11.5225 32.7084 11.5225 32.5668V17.7002H15.7446C15.8773 17.7002 16.0053 17.652 16.1043 17.5648C16.2034 17.4775 16.2665 17.3574 16.2816 17.2272L16.9227 11.7281C16.9314 11.6533 16.924 11.5776 16.901 11.5058C16.8779 11.4341 16.8398 11.368 16.7891 11.3118C16.7384 11.2556 16.6763 11.2106 16.6067 11.1799C16.5372 11.1491 16.4619 11.1332 16.3857 11.1332H11.5225V7.68547C11.5225 6.64628 12.0886 6.11754 13.2059 6.11754H16.3857C16.529 6.11754 16.6665 6.06128 16.7679 5.96114C16.8693 5.861 16.9262 5.72519 16.9262 5.58357V0.537451C16.9267 0.46711 16.9131 0.397372 16.8862 0.332242C16.8593 0.267113 16.8196 0.207875 16.7695 0.157934C16.7193 0.107992 16.6597 0.0683306 16.594 0.0412273C16.5282 0.014124 16.4578 0.000113253 16.3866 0L12.004 0C11.9731 0 11.9043 0 11.8029 0C9.78288 0.00712083 7.8331 0.733254 6.31106 2.04528C5.59283 2.66549 5.04182 3.45223 4.70752 4.33483C4.37321 5.21743 4.2661 6.16824 4.39579 7.10185V11.1323H0.540545C0.397184 11.1323 0.259694 11.1886 0.158322 11.2887C0.05695 11.3888 7.19456e-07 11.5246 7.19456e-07 11.6663V17.0948C-0.000115202 17.165 0.0137782 17.2345 0.0408912 17.2994C0.0680043 17.3643 0.1078 17.4232 0.158006 17.4729C0.208212 17.5226 0.267843 17.562 0.333482 17.5889C0.399122 17.6158 0.469486 17.6296 0.540545 17.6296Z" fill="#343434"/>
</svg>
