<svg width="34" height="24" viewBox="0 0 34 24" fill="none" xmlns="http://www.w3.org/2000/svg">
<path d="M32.2026 2.00347C30.9927 0.58275 28.7635 0 24.4947 0H9.01379C4.65151 0 2.37999 0.616719 1.17544 2.1289C0 3.60711 0 5.77956 0 8.7865V14.5173C0 20.3413 1.39413 23.2986 9.01379 23.2986H24.4947C28.193 23.2986 30.2423 22.7872 31.5686 21.5338C32.9283 20.2481 33.5085 18.1497 33.5085 14.5164V8.7865C33.5085 5.61493 33.4203 3.42941 32.2026 2.00347ZM21.516 12.445L14.4863 16.0748C14.3215 16.1598 14.1374 16.2015 13.9515 16.1958C13.7657 16.19 13.5846 16.137 13.4255 16.0419C13.2665 15.9468 13.135 15.8128 13.0437 15.6529C12.9524 15.4929 12.9044 15.3124 12.9043 15.1288V7.8893C12.9043 7.70588 12.9521 7.52556 13.0432 7.36571C13.1342 7.20585 13.2654 7.07185 13.4241 6.97662C13.5828 6.88139 13.7636 6.82815 13.9492 6.82201C14.1348 6.81587 14.3188 6.85705 14.4836 6.94157L21.5134 10.5478C21.6886 10.6381 21.8354 10.7741 21.9378 10.941C22.0403 11.108 22.0944 11.2995 22.0944 11.4947C22.0944 11.6899 22.0403 11.8814 21.9378 12.0483C21.8354 12.2152 21.6886 12.3512 21.5134 12.4415L21.516 12.445Z" fill="#343434"/>
</svg>
