<svg width="26" height="15" viewBox="0 0 26 15" fill="none" xmlns="http://www.w3.org/2000/svg">
<path fill-rule="evenodd" clip-rule="evenodd" d="M25.0131 6.58436C25.0972 6.66822 25.1639 6.76784 25.2094 6.87751C25.2549 6.98718 25.2783 7.10476 25.2783 7.2235C25.2783 7.34224 25.2549 7.45982 25.2094 7.56949C25.1639 7.67916 25.0972 7.77878 25.0131 7.86264L18.6939 14.1818C18.5677 14.3084 18.4067 14.3946 18.2314 14.4296C18.056 14.4645 17.8743 14.4467 17.7091 14.3782C17.544 14.3097 17.4029 14.1938 17.3037 14.045C17.2045 13.8963 17.1518 13.7214 17.1521 13.5426L17.1521 9.02897L1.80557 9.02897C1.32673 9.02897 0.867501 8.83875 0.528909 8.50016C0.190318 8.16157 9.8043e-05 7.70234 9.80639e-05 7.2235C9.80848e-05 6.74466 0.190318 6.28543 0.528909 5.94684C0.867501 5.60825 1.32673 5.41803 1.80557 5.41803L17.1521 5.41803L17.1521 0.904351C17.1518 0.725572 17.2045 0.550724 17.3037 0.401972C17.4029 0.253221 17.544 0.137266 17.7091 0.0688071C17.8743 0.000348058 18.056 -0.0175317 18.2314 0.0174345C18.4067 0.0524007 18.5677 0.138638 18.6939 0.265214L25.0131 6.58436Z" fill="#343434"/>
</svg>
