<svg width="88" height="94" viewBox="0 0 88 94" fill="none" xmlns="http://www.w3.org/2000/svg">
<path d="M10.7115 52.0303C8.50537 47.4666 8.2277 47.3808 5.35012 49.9706C6.99084 50.6016 8.48518 51.1772 10.7115 52.0303ZM21.5655 8.01347C20.7528 10.7093 20.051 13.0366 19.3291 15.4397C22.4187 13.6273 25.4074 11.8805 29.0422 9.75012C26.1142 9.06859 23.9837 8.57384 21.5655 8.01347ZM27.5125 90.0245C29.5016 79.7359 31.3544 70.1793 33.0607 61.3598C24.6754 58.8709 16.1537 56.3417 7.36947 53.7367C14.1545 65.9639 20.7578 77.8579 27.5125 90.0245ZM82.2017 57.9016C76.6233 45.5028 71.1104 33.2504 65.5875 20.9676C62.1949 30.499 58.9943 39.5053 55.9552 48.0472C64.8302 51.3791 73.3014 54.5596 82.2017 57.9016ZM30.6021 87.8941C30.8344 88.1313 31.0666 88.3686 31.2988 88.6059C48.2967 79.9378 65.2997 71.2697 82.3733 62.5613C77.8147 60.4157 73.2913 57.9168 68.5054 56.1145C61.0389 53.3126 53.4966 50.8541 45.192 52.1465C41.4461 52.727 39.2601 54.3475 38.3262 57.8057C36.0292 66.287 33.7927 74.7885 31.5613 83.2899C31.1625 84.8045 30.9202 86.3594 30.6021 87.8941ZM58.3481 28.1212C59.903 26.2836 59.7616 24.4258 58.7065 22.3408C56.046 17.1107 53.2643 11.9159 51.0632 6.48886C49.8466 3.48507 48.3927 3.43964 46.0805 4.68153C40.8302 7.51368 35.4739 10.1792 30.3699 13.2537C21.8887 18.3728 13.5941 23.7947 5.17343 29.0047C3.45697 30.0699 4.17384 31.0593 4.7948 32.271C8.01062 38.5663 11.1507 44.902 14.4372 51.157C14.9168 52.0707 15.9366 53.04 16.8958 53.3025C22.7216 54.9079 28.603 56.3164 34.444 57.7855C34.9438 56.7607 35.2517 56.2356 35.4637 55.6753C37.0287 51.4952 39.7953 49.0266 44.4701 48.8902C47.4638 48.7994 50.4473 48.4006 53.2088 48.1582C53.961 45.4422 54.683 43.024 55.2989 40.5806C56.354 36.4005 57.3384 32.2053 58.3582 28.0202L58.3481 28.1212ZM7.19278 44.9727C5.05731 40.7926 3.06323 36.8448 1.03883 32.9172C-0.718011 29.5095 -0.349498 28.1464 2.937 26.223C3.45698 25.915 3.98705 25.597 4.54238 25.3648C11.7313 22.3256 16.0325 17.0046 17.8449 9.39168C19.001 4.51494 19.8339 4.23728 24.7107 5.24191C27.3813 5.79218 30.0418 6.45856 32.7427 6.78671C33.818 6.91797 35.0649 6.45352 36.0999 5.97393C39.9467 4.19185 43.7481 2.31889 47.5395 0.425743C49.7002 -0.649559 51.1037 0.456047 52.0528 2.12706C53.9106 5.37317 55.5816 8.73034 57.3081 12.0522C58.5147 14.3694 59.6859 16.7017 60.8622 19.0089C61.2711 18.8019 61.4932 18.7564 61.5992 18.6201C62.4878 17.5145 63.351 16.3887 64.2194 15.268C65.2442 16.2878 66.6527 17.1258 67.2383 18.3576C73.0894 30.5899 78.8041 42.8877 84.5441 55.1704C85.3569 56.9121 85.9981 58.7396 86.8967 60.4359C88.1588 62.8187 87.4924 64.7018 85.2964 65.7872C69.2324 73.7182 53.1281 81.5533 37.0237 89.4086C34.9337 90.4284 32.8537 91.4936 30.688 92.3316C26.8512 93.8158 25.266 93.0989 23.3325 89.4894C17.653 78.8827 11.9484 68.2861 6.21342 57.7047C5.06239 55.5743 3.80028 53.4994 2.46751 51.4801C0.766205 48.8953 1.64966 47.3959 4.30006 46.4317C5.04723 46.1591 5.72875 45.7199 7.19278 44.9727Z" fill="#E0E0E0"/>
<path d="M58.3584 28.0203C57.3791 29.1209 56.6117 30.59 55.4001 31.2765C44.4653 37.4255 33.4649 43.4532 22.4544 49.4608C21.5709 49.9404 20.4703 50.0111 19.4657 50.2686C19.2436 49.9808 19.0214 49.688 18.7993 49.4002C19.5768 48.5572 20.1977 47.4516 21.1468 46.9164C32.2482 40.6564 43.3749 34.4368 54.5671 28.3434C55.5667 27.7982 57.0711 28.1869 58.3484 28.1314C58.3484 28.1213 58.3584 28.0203 58.3584 28.0203Z" fill="#E0E0E0"/>
<path d="M14.6842 41.9741C16.128 40.8281 17.4608 39.4953 19.0359 38.5664C29.057 32.6598 39.0982 26.7835 49.2303 21.0637C50.4924 20.3519 52.3199 20.6396 53.8849 20.4579C52.8752 21.6442 52.0877 23.2143 50.8155 23.9513C40.6582 29.8277 30.4251 35.5778 20.1768 41.2875C18.6724 42.1255 16.9509 42.5698 15.3355 43.1958C15.1184 42.7919 14.9013 42.383 14.6842 41.9741Z" fill="#E0E0E0"/>
<path d="M10.0304 34.8816C11.4793 33.887 12.8827 32.8117 14.3821 31.9081C22.929 26.7486 31.4861 21.5993 40.0734 16.5155C42.0624 15.3393 44.1676 14.3296 46.298 13.431C46.8483 13.1987 47.6964 13.6733 48.4082 13.8247C48.1104 14.4709 47.9993 15.4251 47.4945 15.7229C37.5542 21.6851 27.5988 27.627 17.5576 33.4226C15.407 34.6695 12.9181 35.3309 10.5857 36.2598C10.3989 35.8004 10.2121 35.341 10.0304 34.8816Z" fill="#E0E0E0"/>
</svg>
