<svg width="30" height="30" viewBox="0 0 30 30" fill="none" xmlns="http://www.w3.org/2000/svg">
<path d="M20.9649 0H8.89563C6.53722 0.00276633 4.27621 0.929464 2.60856 2.57682C0.940915 4.22417 0.00280041 6.45767 0 8.78737L0 20.7097C0.00280041 23.0394 0.940915 25.2729 2.60856 26.9203C4.27621 28.5676 6.53722 29.4943 8.89563 29.4971H20.9649C23.3233 29.4943 25.5843 28.5676 27.2519 26.9203C28.9196 25.2729 29.8577 23.0394 29.8605 20.7097V8.78737C29.8577 6.45767 28.9196 4.22417 27.2519 2.57682C25.5843 0.929464 23.3233 0.00276633 20.9649 0V0ZM26.8562 20.7097C26.8562 22.2532 26.2355 23.7334 25.1307 24.8248C24.0258 25.9162 22.5273 26.5294 20.9649 26.5294H8.89563C7.33315 26.5294 5.83467 25.9162 4.72983 24.8248C3.625 23.7334 3.0043 22.2532 3.0043 20.7097V8.78737C3.0043 7.24391 3.625 5.76366 4.72983 4.67227C5.83467 3.58088 7.33315 2.96774 8.89563 2.96774H20.9649C22.5273 2.96774 24.0258 3.58088 25.1307 4.67227C26.2355 5.76366 26.8562 7.24391 26.8562 8.78737V20.7097Z" fill="#343434"/>
<path d="M14.9299 7.11914C13.4024 7.11914 11.9093 7.56656 10.6393 8.40483C9.36928 9.2431 8.37941 10.4346 7.79489 11.8286C7.21037 13.2225 7.05744 14.7564 7.35543 16.2363C7.65342 17.7162 8.38894 19.0755 9.46899 20.1424C10.5491 21.2093 11.9251 21.9359 13.4232 22.2303C14.9213 22.5246 16.4741 22.3735 17.8853 21.7961C19.2964 21.2187 20.5026 20.2409 21.3512 18.9864C22.1998 17.7318 22.6527 16.2568 22.6527 14.748C22.6504 12.7254 21.836 10.7863 20.3882 9.35613C18.9404 7.92594 16.9774 7.12145 14.9299 7.11914ZM14.9299 19.41C13.9964 19.41 13.084 19.1365 12.3079 18.6243C11.5318 18.112 10.9269 17.3839 10.5697 16.5321C10.2125 15.6802 10.119 14.7428 10.3011 13.8385C10.4832 12.9342 10.9327 12.1035 11.5927 11.4515C12.2528 10.7995 13.0937 10.3555 14.0092 10.1756C14.9246 9.9957 15.8735 10.088 16.7359 10.4409C17.5983 10.7937 18.3353 11.3913 18.8539 12.1579C19.3725 12.9246 19.6493 13.8259 19.6493 14.748C19.6493 15.9844 19.1521 17.1702 18.267 18.0445C17.3819 18.9188 16.1815 19.41 14.9299 19.41Z" fill="#343434"/>
<path d="M22.6688 9.00637C23.691 9.00637 24.5197 8.18778 24.5197 7.17799C24.5197 6.1682 23.691 5.34961 22.6688 5.34961C21.6465 5.34961 20.8179 6.1682 20.8179 7.17799C20.8179 8.18778 21.6465 9.00637 22.6688 9.00637Z" fill="#343434"/>
</svg>
