<svg width="85" height="69" viewBox="0 0 85 69" fill="none" xmlns="http://www.w3.org/2000/svg">
<path d="M20.8387 69C16.8172 69 13.5269 68.1786 10.9677 66.5357C8.4086 64.8929 6.30645 62.7936 4.66129 60.2381C2.83333 57.1349 1.55376 53.9405 0.82258 50.6548C0.274193 47.1865 0 44.3571 0 42.1667C0 33.2222 2.28495 25.0992 6.85484 17.7976C11.4247 10.496 18.5538 4.5635 28.2419 0L30.7097 4.92857C25.043 7.30159 20.1075 11.0437 15.9032 16.1548C11.8817 21.2659 9.87097 26.4683 9.87097 31.7619C9.87097 33.9524 10.1452 35.869 10.6935 37.5119C13.6183 35.1389 17 33.9524 20.8387 33.9524C25.5914 33.9524 29.7043 35.504 33.1774 38.6071C36.6505 41.7103 38.3871 46 38.3871 51.4762C38.3871 56.5873 36.6505 60.7857 33.1774 64.0714C29.7043 67.3571 25.5914 69 20.8387 69ZM67.4516 69C63.4301 69 60.1398 68.1786 57.5806 66.5357C55.0215 64.8929 52.9194 62.7936 51.2742 60.2381C49.4462 57.1349 48.1667 53.9405 47.4355 50.6548C46.8871 47.1865 46.6129 44.3571 46.6129 42.1667C46.6129 33.2222 48.8978 25.0992 53.4677 17.7976C58.0376 10.496 65.1667 4.5635 74.8548 0L77.3226 4.92857C71.6559 7.30159 66.7204 11.0437 62.5161 16.1548C58.4946 21.2659 56.4839 26.4683 56.4839 31.7619C56.4839 33.9524 56.7581 35.869 57.3064 37.5119C60.2312 35.1389 63.6129 33.9524 67.4516 33.9524C72.2043 33.9524 76.3172 35.504 79.7903 38.6071C83.2634 41.7103 85 46 85 51.4762C85 56.5873 83.2634 60.7857 79.7903 64.0714C76.3172 67.3571 72.2043 69 67.4516 69Z" fill="white"/>
</svg>
