<svg width="74" height="60" viewBox="0 0 74 60" fill="none" xmlns="http://www.w3.org/2000/svg">
<path fill-rule="evenodd" clip-rule="evenodd" d="M5.21739 0C3.83365 0 2.50659 0.549688 1.52814 1.52814C0.549688 2.50659 0 3.83365 0 5.21739L0 52.1739C0 54.2495 0.824532 56.2401 2.29221 57.7078C3.75988 59.1755 5.75048 60 7.82609 60H63.913C66.3346 60 68.6569 59.0381 70.3692 57.3258C72.0815 55.6135 73.0435 53.2911 73.0435 50.8696V16.9565C73.0435 16.2647 72.7686 15.6011 72.2794 15.1119C71.7902 14.6227 71.1266 14.3478 70.4348 14.3478H65.3165V48.047C65.3165 48.9118 64.973 49.7412 64.3614 50.3527C63.7499 50.9643 62.9205 51.3078 62.0556 51.3078C61.1908 51.3078 60.3614 50.9643 59.7499 50.3527C59.1383 49.7412 58.7948 48.9118 58.7948 48.047V13.007V12.8504V5.21739C58.7948 3.83365 58.2451 2.50659 57.2666 1.52814C56.2882 0.549688 54.9611 0 53.5774 0H5.21739ZM14.5409 14.5409C14.5409 13.849 14.8157 13.1855 15.3049 12.6962C15.7942 12.207 16.4577 11.9322 17.1496 11.9322H40.6278C41.3197 11.9322 41.9832 12.207 42.4725 12.6962C42.9617 13.1855 43.2365 13.849 43.2365 14.5409V27.5844C43.2365 28.2762 42.9617 28.9398 42.4725 29.429C41.9832 29.9182 41.3197 30.193 40.6278 30.193H17.1496C16.4577 30.193 15.7942 29.9182 15.3049 29.429C14.8157 28.9398 14.5409 28.2762 14.5409 27.5844V14.5409ZM13.8887 44.3478C13.8887 42.5478 15.3496 41.087 17.1496 41.087H40.6278C41.4927 41.087 42.3221 41.4305 42.9336 42.042C43.5451 42.6536 43.8887 43.483 43.8887 44.3478C43.8887 45.2127 43.5451 46.0421 42.9336 46.6536C42.3221 47.2651 41.4927 47.6087 40.6278 47.6087H17.1496C16.2847 47.6087 15.4553 47.2651 14.8438 46.6536C14.2322 46.0421 13.8887 45.2127 13.8887 44.3478Z" fill="white"/>
</svg>
