<svg width="102" height="66" viewBox="0 0 102 66" fill="none" xmlns="http://www.w3.org/2000/svg">
<path d="M88.6508 62.0056C88.827 61.6431 89.0032 61.2806 89.1794 60.9182C87.8704 60.0975 86.3903 59.448 85.2978 58.3958C84.4721 57.6003 83.6615 56.2561 83.7421 55.229C83.7974 54.5695 85.4136 53.7539 86.4457 53.5122C87.8956 53.1749 89.4564 53.3713 90.9617 53.2353C96.5602 52.7218 98.4834 51.0201 98.3727 45.4518C98.1914 36.5859 97.6376 27.7199 97.0435 18.869C96.822 15.5412 94.6471 13.4719 91.7018 13.3159C88.6861 13.1598 85.6603 13.0742 82.6395 13.1548C78.7075 13.2655 78.6773 13.7287 78.5967 17.6356C78.4457 25.3788 78.2141 33.1422 77.4639 40.8451C76.9605 46.0006 75.012 47.6972 69.8213 48.236C60.608 49.1925 51.3644 49.847 42.131 50.572C38.8282 50.8288 35.5155 50.9295 32.1977 51.1006C32.7313 54.6299 33.4161 55.6368 37.0662 55.6268C47.7446 55.5915 58.428 55.3297 69.1014 54.937C72.0517 54.8313 74.4733 55.4203 77.0712 56.9005C80.7163 58.9798 84.7742 60.3392 88.6508 62.0056ZM18.1259 59C19.9988 56.3367 21.927 54.4235 22.8484 52.1126C24.4796 47.9943 27.5507 47.5563 31.3015 47.4103C41.7735 47.0075 52.2959 46.8716 62.6823 45.6482C73.5621 44.3643 74.1562 46.0409 74.5035 33.6507C74.7251 25.9074 74.9013 18.1491 74.6848 10.4109C74.5438 5.21013 72.0668 3.48325 66.9869 3.5487C57.7131 3.66953 48.4394 3.57387 39.1656 3.58394C33.4211 3.58394 27.6715 3.55373 21.927 3.64436C17.6023 3.7098 13.2726 3.80044 8.96798 4.15789C6.14859 4.39452 3.80245 5.70352 3.87294 9.03643C4.07936 18.8992 4.0693 28.7822 4.76407 38.6098C5.23733 45.3561 6.71748 46.2473 13.4286 46.504C16.5954 46.6249 17.7131 47.8634 17.7332 50.9798C17.7483 53.3562 17.9598 55.7325 18.1259 59ZM27.9686 50.6727C25.9145 53.6582 24.535 56.0295 22.793 58.0887C21.4538 59.6696 19.8175 61.1397 18.0252 62.1567C15.5834 63.5462 14.2543 62.4185 14.5211 59.589C14.7074 57.5802 14.8484 55.5664 14.9289 53.5525C14.9742 52.5506 14.8434 51.5387 14.7628 49.9779C13.63 50.0383 12.4771 50.134 11.3242 50.1541C5.9623 50.2297 3.63127 48.976 2.52868 43.8407C1.24989 37.8596 0.529952 31.7174 0.122148 25.6104C-0.215172 20.4952 0.242969 15.3247 0.338626 10.1793C0.449388 4.10754 2.82571 1.29319 8.95284 0.588348C12.4418 0.185577 15.9862 0.210754 19.5104 0.175507C26.4733 0.110062 33.4362 0.130196 40.3991 0.110054C49.3808 0.08992 58.3626 0.175514 67.3393 0.0043335C73.4966 -0.116493 76.9151 2.39074 78.1385 8.46249C78.2795 9.13713 78.3601 9.82183 78.491 10.6576C83.012 10.426 87.4073 10.0282 91.8075 10.0131C96.535 9.99804 100.079 13.4568 100.507 18.7784C101.207 27.4228 101.776 36.0925 101.988 44.7621C102.189 53.0138 100.029 55.1636 89.8038 57.3083C91.5407 58.5468 92.8648 59.2114 93.7962 60.2385C94.5866 61.1095 95.5684 62.6098 95.2865 63.4254C94.9945 64.2813 93.3179 65.1321 92.2154 65.1674C85.9825 65.3738 80.4343 63.1535 75.0825 60.1176C73.4563 59.1963 71.367 58.6324 69.5042 58.6626C59.7169 58.8288 49.9346 59.2769 40.1524 59.5336C38.355 59.5789 36.5274 59.2769 34.7402 58.9849C30.5161 58.3052 28.9403 55.1183 27.9686 50.6727Z" fill="#E0E0E0"/>
<path d="M36.1096 28.2637C34.2065 28.2234 33.2348 26.7785 33.0737 24.6237C32.8875 22.1315 34.2619 20.5607 36.6836 20.3996C39.0247 20.2385 41.1996 21.7841 41.3456 23.7124C41.5117 25.8773 39.1656 28.1177 36.1096 28.2637Z" fill="#E0E0E0"/>
<path d="M56.6662 25.9532C54.2949 26.1344 52.1552 24.6039 52.1149 22.5347C52.0445 18.794 55.3371 19.5039 57.3912 18.95C59.2641 18.4415 60.704 19.5039 60.8399 21.6939C60.9759 23.9343 59.1886 25.7518 56.6662 25.9532Z" fill="#E0E0E0"/>
<path d="M18.4884 29.1299C15.674 28.8983 14.652 27.7957 14.5564 25.9329C14.4607 24.1003 14.5664 22.1569 17.0737 21.9052C19.2436 21.6938 20.8244 22.8215 20.6684 24.9058C20.5576 26.3608 19.2587 27.7252 18.4884 29.1299Z" fill="#E0E0E0"/>
</svg>
