<svg width="52" height="60" viewBox="0 0 52 60" fill="none" xmlns="http://www.w3.org/2000/svg">
<path fill-rule="evenodd" clip-rule="evenodd" d="M8.3697 0.0178745L34.7792 0.00446855V10.2957L8.3697 10.3091C7.17688 10.3104 6.01494 9.92991 5.054 9.22321L0.773069 6.0639C0.632613 5.96002 0.518477 5.82465 0.439828 5.66866C0.361178 5.51267 0.320208 5.34041 0.320208 5.16571C0.320208 4.99101 0.361178 4.81875 0.439828 4.66276C0.518477 4.50677 0.632613 4.3714 0.773069 4.26752L5.05846 1.10375C6.0164 0.397261 7.17496 0.0152479 8.36523 0.0134057L8.3697 0.0178745ZM45.6513 10.2867L40.3649 10.2912V0H45.6513H45.6692C48.5023 0.0446861 50.6696 2.56051 50.6696 5.1389C50.6696 7.72176 48.5023 10.242 45.6692 10.2867H45.6513ZM19.148 20.6092C20.645 21.208 21.9185 21.8649 23.0223 22.5173V60C21.3194 58.7203 19.4566 57.6688 17.4812 56.872C14.1968 55.5582 9.46004 54.4723 2.2343 54.4723C1.64173 54.4723 1.07343 54.2369 0.654412 53.8179C0.235399 53.3989 0 52.8306 0 52.238V20.1177C0 19.5251 0.235399 18.9568 0.654412 18.5378C1.07343 18.1188 1.64173 17.8834 2.2343 17.8834C9.92031 17.8834 15.238 19.0407 19.148 20.6092ZM34.1446 56.872C31.7316 57.8417 30.038 58.9543 28.6036 59.9955V22.5128C29.7073 21.8604 30.9853 21.2035 32.4823 20.6048C36.3923 19.0363 41.71 17.8789 49.396 17.8789C49.9886 17.8789 50.5569 18.1143 50.9759 18.5333C51.3949 18.9523 51.6303 19.5206 51.6303 20.1132V52.2336C51.6303 52.8261 51.3949 53.3944 50.9759 53.8134C50.5569 54.2325 49.9886 54.4679 49.396 54.4679C42.1703 54.4679 37.4335 55.5537 34.1446 56.872Z" fill="white"/>
</svg>
