<svg width="130" height="98" viewBox="0 0 130 98" fill="none" xmlns="http://www.w3.org/2000/svg">
<path d="M57.9234 53.1521L8.98071 22.4049L66.422 8.55896L114.895 38.6959L57.9234 53.1521Z" fill="white"/>
<path d="M108.745 70.5737L105.431 70.0471L110.645 37.219L113.96 37.7455L108.745 70.5737Z" fill="white"/>
<path d="M112.151 72.3152C112.585 69.583 110.587 66.994 107.689 66.5335C104.786 66.0725 102.087 67.9155 101.653 70.6477C101.219 73.3811 103.214 75.9697 106.116 76.4308C109.015 76.8912 111.717 75.0486 112.151 72.3152Z" fill="white"/>
<path d="M104.274 72.6684C104.274 72.6684 98.8117 80.214 98.4831 92.9839L104.452 93.9321L107.929 72.0458C107.929 72.0458 104.168 73.318 104.274 72.6684Z" fill="white"/>
<path d="M111.826 77.912C111.826 77.912 116.551 84.4391 116.835 95.4853L111.672 96.3055L108.665 77.3735C108.665 77.3735 111.918 78.4739 111.826 77.912Z" fill="white"/>
<path d="M89.206 48.8382C89.1686 49.0734 61.6728 56.2291 56.3663 57.6082C51.7472 54.6525 27.8246 39.3291 27.8619 39.0939L22.575 72.377C29.5416 81.995 45.6617 85.9308 50.8509 86.9756L50.8441 87.0181C50.8441 87.0181 51.1455 87.066 51.676 87.1357C52.2008 87.2336 52.5021 87.2815 52.5021 87.2815L52.5089 87.2389C57.7688 87.854 74.3138 89.1069 83.919 82.1214L89.206 48.8382Z" fill="white"/>
<path d="M80.7064 59.5269C80.6864 59.6527 79.0688 60.3153 76.2297 61.0532C76.2297 61.0532 75.4764 65.4207 74.9659 68.2142C74.3338 71.6736 73.7022 73.5511 73.281 78.1847C73.0872 80.3166 77.8778 77.3341 77.8778 77.3341L80.7064 59.5269Z" fill="#D0EDFC"/>
</svg>
