<svg width="60" height="60" viewBox="0 0 60 60" fill="none" xmlns="http://www.w3.org/2000/svg">
<g clip-path="url(#clip0_14977_90)">
<path fill-rule="evenodd" clip-rule="evenodd" d="M60 53.5714C60 55.2764 59.3227 56.9115 58.1171 58.1171C56.9115 59.3227 55.2764 60 53.5714 60H6.42857C4.72361 60 3.08848 59.3227 1.88288 58.1171C0.677294 56.9115 0 55.2764 0 53.5714L0 6.42857C0 4.72361 0.677294 3.08848 1.88288 1.88288C3.08848 0.677294 4.72361 0 6.42857 0L53.5714 0C55.2764 0 56.9115 0.677294 58.1171 1.88288C59.3227 3.08848 60 4.72361 60 6.42857V53.5714ZM16.0714 8.57143C14.0823 8.57143 12.1747 9.3616 10.7681 10.7681C9.3616 12.1747 8.57143 14.0823 8.57143 16.0714C8.57143 18.0606 9.3616 19.9682 10.7681 21.3747C12.1747 22.7813 14.0823 23.5714 16.0714 23.5714C18.0606 23.5714 19.9682 22.7813 21.3747 21.3747C22.7813 19.9682 23.5714 18.0606 23.5714 16.0714C23.5714 14.0823 22.7813 12.1747 21.3747 10.7681C19.9682 9.3616 18.0606 8.57143 16.0714 8.57143ZM36.0043 28.2814L10.7143 53.5714H53.5714V36.4286L41.5286 27.8229C40.7018 27.232 39.6919 26.9542 38.6793 27.039C37.6666 27.1238 36.717 27.5656 36 28.2857L36.0043 28.2814Z" fill="white"/>
</g>
<defs>
<clipPath id="clip0_14977_90">
<rect width="60" height="60" fill="white"/>
</clipPath>
</defs>
</svg>
